Patient4_TMGait_0pt7_02_right_43_EMG.mot
version=1
nRows=40
nColumns=33
inDegrees=no
endheader
time	1LAddLong	2LGlutMax	3LGlutMed	4LIliopsoas	5LSemiMemb	6LBicFemLong	7LRecFem	8LVastMed	9LVastLat	10LGasMed	11LTibAnt	12lTibPost	13LPeroneusLong	14LSol	15LExtDigLong	16LFlexDigLong	17RAddLong	18RGlutMax	19RGlutMed	20RIliopsoas	21RSemiMemb	22RBicFemLong	23RRecFem	24RVastMed	25RVastLat	26RGasMed	27RTibAnt	28RTibPost	29RPeroneusLong	30RSol	31RExtDigLong	32RFlexDigLong
49.52	0.035553	-0.092468	-0.058441	0.014496	0.15274	0.25192	0.098724	-0.019989	-0.13687	-0.059052	0.01297	-0.020142	-0.044861	-0.058289	0.001373	0.000763	0.009155	0.35111	0.24307	-0.002136	-0.075378	0.090637	-0.48263	0.014038	-0.022888	-0.17212	0.039673	-0.33783	0.27588	-0.22537	-0.001373	-0.003815
49.521	0.04425	-0.072479	-0.046539	0.014191	0.15778	0.24521	0.074158	-0.019836	-0.038452	-0.02182	0.008698	-0.003204	0.07782	-0.027466	0.020142	0.000305	0.010834	0.34485	0.095978	0.031738	-0.010986	0.057373	-0.4567	0.006714	-0.045471	-0.08255	0.007935	-0.25146	0.98541	-0.95581	-0.001526	-0.011902
49.522	-0.007477	-0.10742	-0.038147	0.023193	0.058899	0.20081	0.12192	-0.007782	-0.006714	-0.040588	0.000305	-0.005951	0.26352	-0.028992	0.032196	0.013123	0.003052	0.26977	0.16205	0.046539	0.011292	0.014801	-0.48401	-0.001221	-0.033875	0.02243	0.022888	-0.004425	0.53528	0.019379	-0.000153	-0.016937
49.523	-0.028839	-0.03891	0.083618	0.015106	-0.01358	0.18051	0.15976	-0.001221	-0.008392	-0.056152	-0.006256	0.006866	-0.14893	-0.00061	0.037079	-0.000763	-0.001373	0.30762	0.7106	0.019684	0.012512	0.010376	-0.44754	0.041504	-0.051117	0.025482	0.024567	0.36926	0.075226	1.7981	-0.004578	-0.02594
49.524	-0.056	0.00473	0.097504	0.012207	-0.094299	0.14893	0.22232	0.016785	0.003357	-0.018463	0.013123	-0.00351	-0.16998	0.022583	0.028534	0.004883	-0.026245	0.35095	0.4042	0.034485	0.000458	0.053101	-0.44296	0.063019	-0.037689	0	0.014496	0.74677	-0.2507	0.73166	-0.003357	-0.013275
49.525	-0.086365	0.028687	0.078125	0.008392	-0.23148	0.20889	0.20157	0.021057	0.017853	0.011139	0.011292	0.005646	0.59876	0.025482	0.02594	-0.010223	-0.010681	0.36774	0.36224	-0.010529	0.029297	0.08728	-0.47516	0.047455	-0.050964	0.018463	0.083466	0.26642	-0.5719	0.61172	-0.003662	-0.011902
49.526	-0.079803	0.075378	0.045166	-0.005951	-0.2298	0.26337	0.11932	0.031586	0.047607	-0.001221	-0.001831	0.005951	0.19272	0.076904	0.062561	-0.005341	-0.001831	0.30792	0.85709	-0.04364	0.067139	0.1059	-0.42297	-0.019836	-0.046997	0.063324	0.10391	0.026093	-0.47836	1.456	-0.010223	0.000458
49.527	-0.06073	0.094147	0.040588	-0.005341	-0.11963	0.14603	0.077209	0.039215	0.10162	-0.031891	0.001831	0.007629	-0.31311	0.091095	0.076294	0.003357	-0.003204	0.31647	0.34393	-0.099182	0.087585	0.11948	-0.47607	0.001984	-0.040894	0.061188	0.074463	0.034332	-0.068054	1.443	-0.002289	0.007172
49.528	-0.035706	0.035706	0.016174	-0.005188	-0.019226	0.059967	0.10468	0.045166	0.12146	0.052795	-0.015564	0.009155	-0.53604	-0.031128	-0.031281	-0.006714	-0.004272	0.29724	-0.13275	-0.07782	0.086212	0.1619	-0.51575	0.035553	-0.026855	0.048981	0.046082	0.084534	0.039978	0.81024	-0.000763	-0.007629
49.529	-0.012054	-0.015106	0.015411	0.007629	0.20218	0.020142	0.063171	0.039368	0.32425	0.16586	-0.011292	0.008392	-0.21118	-0.097504	-0.089569	0.002441	-0.010071	0.36621	-0.044708	-0.028534	0.058441	0.15091	-0.47928	0.029449	-0.033875	0.034637	-0.003357	-0.08606	0.14694	-0.15243	-0.002136	-0.009155
49.53	0.010529	-0.027313	0.010834	0.01358	0.17777	0.003204	0.006561	0.033264	0.49972	0.18707	-0.001984	0.008545	-0.14908	-0.12878	-0.15579	-0.000153	0.001831	0.41229	0.26581	0.018311	0.044708	0.049438	-0.49881	0.059052	-0.018463	0.022583	-0.000153	-0.26077	0.2861	-0.70664	0.000153	-0.007019
49.531	0.063629	-0.018005	0.017395	0.019531	0.13748	0.025482	-0.10407	0.041504	0.62546	0.1384	-0.013885	0.009918	0.13931	-0.17731	-0.18097	-0.006714	-0.000763	0.37689	-0.070496	0.13611	0.012665	-0.026703	-0.52231	0.074615	-0.031128	0.008087	0.00412	-0.058136	0.32608	-0.95749	0.001831	-0.006256
49.532	0.07782	0.006561	0.014343	0.011597	0.18402	0.069733	-0.12985	0.018005	0.53833	-0.17548	-0.009308	0.015411	0.12054	-0.089417	-0.050659	-0.007629	-0.000458	0.38162	0.11673	0.10696	0.036621	-0.05661	-0.53116	0.059357	-0.020905	0.01297	-0.000305	0.15289	0.30701	-0.76172	-0.002289	-0.008087
49.533	0.079498	-0.024872	0.019073	0.002441	0.17792	0.013123	-0.097198	-0.024414	0.36331	-0.2887	0.003815	0.016937	0.098724	0.006866	0.028839	-0.001831	0.00351	0.38834	0.46356	0.074768	0.033722	-0.041962	-0.4863	0.053253	-0.03479	0.000458	0.028381	0.085754	0.24353	-0.47165	-0.000458	-0.008545
49.534	0.048676	-0.075531	-0.016174	0.010681	0.065002	0.12451	-0.025024	-0.059052	0.14435	-0.24094	0.003052	0.020599	0.064087	-0.028076	0.025024	0.000916	0.011597	0.41351	0.3093	0.090942	0.038147	-0.072021	-0.45654	0.015717	-0.032196	-0.009766	0.006409	0.002289	0.18005	0.029755	-0.001221	-0.005188
49.535	0.045166	-0.083771	-0.002594	0.015564	0.000305	0.37872	-0.005035	-0.075073	-0.11002	-0.17014	0.001068	0.020905	0.009155	-0.093689	0.019226	0.004425	0.006104	0.43671	0.49332	0.057983	0.061798	-0.060883	-0.44174	0.028839	-0.032654	-0.01297	-0.016937	-0.025482	0.067139	0.1506	-0.001831	0.000763
49.536	0.03891	-0.093536	0.019989	0.006256	-0.01358	0.50613	0.088348	-0.0737	-0.27725	-0.13016	0.004425	0.039215	-0.003967	-0.20447	-0.004272	0.007629	0.010529	0.45075	0.51254	0.014954	0.079956	0.00946	-0.4773	0.019684	-0.025024	-0.011597	0	-0.037231	0.006104	0.05188	-0.003052	-0.011597
49.537	0.05127	-0.094299	0.020752	-0.007324	-0.032806	0.42847	0.062256	-0.047302	-0.23392	-0.092163	-0.000916	0.075226	0.025787	-0.20065	-0.003967	0.000916	0.006561	0.44952	0.55634	-0.005493	0.073547	0.040436	-0.4686	0.041199	-0.00946	-0.004272	0.014648	-0.038605	-0.010681	-0.01236	-0.00885	-0.010681
49.538	0.046539	-0.1593	-0.010986	-0.007935	-0.059509	0.072021	-0.075226	-0.013885	-0.18082	-0.15991	-0.005798	0.12955	0.007324	-0.15243	0.002289	-0.005493	0.005798	0.47714	0.10666	-0.001678	0.069733	0.034943	-0.47241	0.063782	-0.036316	-0.012817	0.033722	-0.047607	0.031738	-0.013885	-0.003052	-0.010681
49.539	0.036774	-0.14069	-0.09491	-0.000305	-0.068207	0.012665	-0.15243	0.01358	-0.24536	-0.10849	-0.002899	-0.096436	-0.017548	-0.13473	-0.010376	-0.008087	0.005798	0.44006	0.073547	0.010376	0.061188	0.024261	-0.44296	0.054169	-0.037994	-0.005493	0.059509	-0.045319	0.003357	-0.005951	-0.002289	-0.00885
49.54	0.024414	-0.058899	-0.13794	0.025635	-0.049438	-0.112	-0.06958	-0.019989	-0.36102	-0.020752	-0.005341	-0.045624	-0.024261	-0.082092	-0.000305	-0.016479	0.007629	0.40161	-0.001068	0.007629	0.06134	0.029602	-0.48691	0.056763	-0.027466	0.00061	0.092468	-0.042419	-0.094604	-0.033112	-0.005188	-0.00885
49.541	0.02594	0.004578	-0.1651	0.013885	0.00412	-0.57983	0.011292	0.006714	-0.42847	0.007172	0.000763	0.030212	-0.046082	-0.10971	-0.013428	-0.02243	0.005798	0.42496	0.046387	-0.052643	0.067291	0.040283	-0.51498	0.051575	-0.036316	-0.011597	0.074158	-0.042725	-0.083313	-0.011444	-0.003052	-0.010376
49.542	0.005798	0.025024	-0.11826	0.002441	0.06546	-0.73563	0.054016	-0.007172	-0.26413	0.028381	0.001831	0.012817	-0.028076	-0.090637	0.005646	0.003204	0	0.36407	0.096588	-0.075226	0.065765	0.043945	-0.49988	0.05661	-0.040741	-0.00351	0.029907	-0.034637	-0.00351	-0.011292	0.001068	-0.007935
49.543	-0.010681	0.002747	-0.015717	0.020447	0.068359	-0.45487	0.041809	-0.003357	-0.10849	0.067444	-0.001678	0.010681	-0.011902	-0.055237	0.005798	0.013275	0.000153	0.30243	0.11841	-0.0354	0.059814	0.029297	-0.50079	0.030518	-0.049438	0.001984	0.022583	-0.037842	0.016174	-0.013428	-0.001831	-0.025024
49.544	-0.033875	0.042267	0.038452	0.012817	0.016937	-0.1561	0.051422	0.008087	-0.10315	0.014648	0.001831	0.01358	-0.010376	0.019836	-0.008545	0.023956	0.005188	0.27313	0.14084	0.005493	0.069275	0.013275	-0.52994	0.0737	-0.045013	0.003204	0.0383	-0.03479	-0.022125	-0.002136	-0.003052	-0.036621
49.545	-0.028992	0.041351	0.034485	0.010529	-0.072174	-0.000916	0.033875	0.004883	-0.085602	-0.16068	0.010071	0.008698	0.002289	0.009918	-0.00946	0.021515	-0.002441	0.30411	0.070801	0.067902	0.074158	0.032501	-0.55084	0.12085	-0.040741	0.001984	0.093689	-0.036774	-0.093536	-0.010681	0.002747	-0.044708
49.546	-0.015717	0.02655	0.011597	0.005493	-0.11887	-0.053253	0.053711	0.014038	-0.067596	-0.13031	-0.002289	0.00061	0.00061	-0.061188	0.005341	0.01358	-0.00885	0.30746	-0.12711	0.049438	0.086517	0.029144	-0.56046	0.094147	-0.04364	0.00412	0.12985	-0.031433	-0.37964	-0.000763	0.004272	-0.044098
49.547	0.016785	0.012207	-0.04425	0.003204	-0.14252	-0.19134	0.078735	0.014496	0.002899	-0.063782	-0.001678	0.003357	0.007935	-0.12207	0.005646	0.01709	-0.00412	0.25879	-0.10513	-0.037689	0.081787	0.025635	-0.54291	0.072937	-0.049438	0.002594	0.090179	-0.041656	-0.38696	-0.055695	-0.001373	-0.03952
49.548	0.016632	0.061798	-0.054321	0.017242	-0.083466	-0.25009	0.097198	0.002899	0.012054	-0.038452	-0.00473	-0.001678	-0.010986	-0.13443	0.009918	0.011749	0.009155	0.23941	-0.14893	-0.032196	0.070801	0.016785	-0.56732	0.075989	-0.046234	0.000763	-0.011292	-0.031891	-0.11917	-0.21088	-0.001526	-0.036011
49.549	0.044556	0.061035	-0.087128	0.011292	0.10513	-0.18143	0.098572	-0.015411	0.055542	-0.029144	0.006561	-0.001221	-0.020905	-0.064545	0.002136	0.013275	0.007172	0.066528	-0.047607	-0.004272	0.08606	0.023499	-0.55756	0.072021	-0.036926	0.008087	-0.088196	-0.028229	0.053711	-0.68634	-0.000916	-0.032043
49.55	0.046234	0.02243	-0.16052	0.006866	0.1741	-0.018158	-0.002594	-0.029449	0.11993	-0.03952	-0.006561	-0.014038	-0.005646	-0.047607	0.001373	0.009766	0.00885	0.10254	-0.097656	0.083771	0.095062	0.021973	-0.57281	0.0737	-0.040436	0.013428	-0.098114	-0.045166	0.21912	-0.80154	-0.001221	-0.031128
49.551	0.042725	-0.085907	-0.070496	0.000916	0.10239	0.1445	0.005951	-0.041962	0.15762	-0.037079	0.007629	-0.007629	-0.015717	-0.025482	-0.005951	0.018005	0.005951	0.052032	-0.19821	0.079041	0.10651	0.022125	-0.56732	0.062103	-0.051422	0.030212	-0.031891	-0.055237	0.18814	-0.9108	0.000763	-0.018311
49.552	0.016479	-0.1651	0.12344	0.001831	0.054626	0.27283	0.044861	-0.017242	0.16571	-0.0177	-0.00351	-0.009918	-0.014191	-0.034637	-0.006104	0.014954	0.009918	0.067749	-0.36209	0.085907	0.097046	0.024567	-0.57617	0.029297	-0.056915	0.012512	-0.019836	0.021362	0.003357	-0.83557	-0.000153	-0.020905
49.553	0.000763	-0.23712	0.28	0.007935	0.006409	0.29511	0.035706	0.023499	0.27954	-0.010681	-0.006561	-0.011902	-0.003967	-0.12054	-0.010834	0.012665	0.017395	0.069427	-0.082703	0.034943	0.081177	0.047302	-0.6247	0.045319	-0.035858	0.000458	-0.022583	0.024567	-0.21881	-0.15991	0	-0.019684
49.554	-0.001221	-0.23743	0.3421	0.033264	-0.05249	0.14053	0.029297	0.036926	0.23377	-0.014954	-0.002136	-0.014801	-0.010223	-0.11154	-0.012512	0.011597	0.010223	-0.011292	-0.010834	0.049591	0.085602	0.04715	-0.63217	0.00412	-0.044098	0.005188	-0.019073	-0.23132	-0.19898	0.68497	0.002289	-0.018311
49.555	-0.005493	-0.17822	0.29785	0.019379	-0.001373	0.019836	0.094147	0.008698	0.079346	-0.010223	0.003357	-0.014801	0.009918	-0.07309	-0.006561	-0.001831	0.019836	-0.023193	-0.21698	0.022736	0.079193	0.004578	-0.6424	0.007477	-0.037231	-0.00824	-0.016785	0.018921	-0.01709	1.1903	-0.004272	-0.016022
49.556	0.001068	-0.12039	0.19028	0.010986	0.032501	0.077667	0.14099	0.002289	-0.20142	-0.009918	0.005188	-0.014801	0.013733	-0.045166	-0.005646	0.018311	0.006714	-0.036316	-0.36667	-0.07309	0.064392	-0.008392	-0.63751	0.053253	-0.019531	-0.016022	-0.013733	0.26535	-0.063629	0.69351	-0.003967	-0.018921
49.557	-0.016327	-0.020905	0.036163	0.009918	0.007935	0.019073	0.12466	-0.019836	-0.39581	-0.009003	0.005341	-0.02243	0.10742	0.007782	-0.000916	0.007477	0.004272	-0.027313	-0.32654	-0.059814	0.059662	-0.032806	-0.7164	0.052948	-0.031738	-0.020294	-0.042114	0.061798	0.17929	0.39291	-0.001068	-0.017395
49.558	-0.021515	0.10376	-0.032501	0.005035	-0.088501	0.027466	0.11063	-0.018463	-0.54657	-0.025482	-0.007324	-0.02243	0.14847	0.023193	0.019226	-0.005035	-0.01236	-0.03067	-0.38727	-0.010223	0.080109	-0.011597	-0.70313	0.09079	-0.014343	-0.027161	-0.054779	0.009003	0.38437	0.20798	0.00351	-0.021057
49.559	-0.023499	0.029602	-0.17151	-0.006104	-0.12314	-0.080109	0.065308	-0.035095	-0.45044	-0.016937	-0.002136	-0.020447	-0.112	0.007935	0.001373	-0.01236	-0.012054	-0.036316	-0.40665	0.058289	0.11795	-0.046844	-0.72998	0.073395	-0.012512	-0.03067	0.014648	-0.00946	0.30579	0.24872	-0.002136	-0.030212
